:SAMPLES-PER-SECOND 30
:FULLY-SPECIFIED
:DEGREES
224
root  -28.871 39.1962 2.46509 85.4782 87.0375 92.6886
RightUpLeg  -14.8583 -2.41626 -1.88654
RightLeg  -4.27955 7.91028 -2.69889
RightFoot  -2.88904 -0.762402 10.0157
RightToes  5.23868e-010 0 -3.6325e-017
Spine  8.47851 0.518877 -7.63368
Spine1  9.43719 -1.1572 4.35959
HEad  -8.52428 2.43135 -2.37995
LeftShoulder1  -0.158205 3.95605 -28.8256
LeftArm  -11.9896 8.02753 -37.0511
LeftForeArm  81.3406 -78.6782 -102.816
LeftHand  -0.00133249 4.66762 -4.6206
RightShoulder  -0.759383 -5.74441 27.2568
RightArm  -15.1441 -15.8789 33.9373
RightForeArm  113.322 70.0072 145.829
RightHand  -0.019165 -2.29185 -0.568046
LeftUpLeg  12.1344 8.95976 -2.63818
LeftLeg  13.3077 -9.4938 -4.65756
LeftFoot  -16.1282 0.44228 8.26322
LeftToes  -4.9204e-010 1.02043e-011 -1.81609e-011
225
root  -27.6237 38.9206 2.44837 83.2947 87.3062 91.0483
RightUpLeg  -14.6942 -1.94637 -1.21252
RightLeg  -2.53458 4.09533 -2.0488
RightFoot  -2.4569 -0.712725 8.94713
RightToes  5.23868e-010 0 -3.6325e-017
Spine  8.44509 0.363133 -5.91831
Spine1  10.1328 -1.02028 3.29059
HEad  -8.46961 2.30632 -2.37909
LeftShoulder1  -0.155105 3.95051 -28.5622
LeftArm  -12.1956 8.13539 -37.4325
LeftForeArm  80.9385 -78.6789 -102.614
LeftHand  0.0159573 4.19869 -4.14054
RightShoulder  -0.752942 -5.70045 27.636
RightArm  -14.9226 -15.2393 33.5662
RightForeArm  112.592 70.2182 145.346
RightHand  -0.0276942 -3.48293 -0.951722
LeftUpLeg  14.5645 9.09948 -2.3227
LeftLeg  14.0467 -9.29704 -4.02571
LeftFoot  -18.3179 0.620154 8.34203
LeftToes  -4.9204e-010 1.02043e-011 -1.81609e-011
226
root  -26.2825 38.6236 2.40213 89.7079 87.6379 98.1225
RightUpLeg  -14.3325 -1.7934 -0.624146
RightLeg  2.44936 0.354922 -1.24916
RightFoot  -1.78852 -0.701924 8.08627
RightToes  5.23868e-010 0 -3.6325e-017
Spine  8.41275 -0.0942314 -4.18986
Spine1  10.9366 -1.33524 2.67293
HEad  -8.25502 2.82696 -2.38658
LeftShoulder1  -0.21432 4.11695 -28.7919
LeftArm  -12.2993 8.57184 -37.3323
LeftForeArm  81.8621 -78.6339 -103.576
LeftHand  0.0191783 4.13479 -4.12593
RightShoulder  -0.7265 -5.63693 27.4055
RightArm  -14.6307 -14.7679 33.8006
RightForeArm  111.784 70.6624 144.396
RightHand  -0.0194788 -2.14002 -0.411212
LeftUpLeg  17.2751 9.02001 -1.92133
LeftLeg  14.7159 -9.35016 -3.27711
LeftFoot  -20.3044 0.780889 8.39382
LeftToes  -4.9204e-010 1.02043e-011 -1.81609e-011
227
root  -24.8956 38.4288 2.32791 131.567 87.6048 140.097
RightUpLeg  -13.8249 -2.74516 -0.109896
RightLeg  6.71741 -1.98492 -0.470378
RightFoot  -0.241143 -0.419042 4.97397
RightToes  5.23868e-010 0 -3.6325e-017
Spine  7.79014 -1.18048 -1.87712
Spine1  11.5472 -2.25659 2.23443
HEad  -8.18419 2.89469 -2.64167
LeftShoulder1  -0.235033 4.17216 -29.0225
LeftArm  -12.2732 9.4188 -36.8523
LeftForeArm  83.686 -78.5812 -105.001
LeftHand  0.0236102 4.26708 -4.51496
RightShoulder  -0.72573 -5.64041 27.3113
RightArm  -14.2278 -15.1574 33.7205
RightForeArm  112.047 70.5734 144.596
RightHand  -0.0219879 -2.31786 -0.260712
LeftUpLeg  19.3884 7.68511 -1.55025
LeftLeg  15.132 -9.35435 -2.25854
LeftFoot  -21.4061 0.808925 7.69503
LeftToes  -4.9204e-010 1.02043e-011 -1.81609e-011
228
root  -23.5278 38.4257 2.33469 179.5 87.4952 -172.426
RightUpLeg  -14.6451 -3.634 1.63072
RightLeg  10.1403 -2.46792 -0.0866683
RightFoot  5.87018 0.193591 -1.22916
RightToes  5.23868e-010 0 -3.6325e-017
Spine  6.52273 -1.68165 1.75109
Spine1  12.4824 -2.47005 2.02952
HEad  -8.09075 2.52402 -3.14598
LeftShoulder1  -0.22323 4.13494 -29.1584
LeftArm  -11.687 9.7309 -36.7703
LeftForeArm  83.1868 -78.5882 -104.697
LeftHand  0.021621 4.34305 -4.22736
RightShoulder  -0.762873 -5.73237 27.5993
RightArm  -14.2591 -16.7162 32.8692
RightForeArm  113.329 69.8575 146.102
RightHand  -0.0245938 -2.53494 -0.453756
LeftUpLeg  20.9181 5.59119 -0.341526
LeftLeg  15.1994 -8.66185 -1.77686
LeftFoot  -21.409 0.614066 5.55226
LeftToes  -4.9204e-010 1.02043e-011 -1.81609e-011
229
root  -22.0919 38.2582 2.48455 -141.031 87.9391 -133.261
RightUpLeg  -15.7555 -2.9619 3.88816
RightLeg  15.5355 -1.03676 -0.421284
RightFoot  5.1785 0.31937 -1.96846
RightToes  5.23868e-010 0 -3.6325e-017
Spine  6.38257 -1.23259 4.10286
Spine1  12.0379 -1.84203 2.11193
HEad  -8.76298 2.13724 -3.15149
LeftShoulder1  -0.365426 4.51961 -29.841
LeftArm  -11.1117 10.2909 -36.5738
LeftForeArm  83.0486 -78.5892 -104.622
LeftHand  0.0205405 4.16253 -3.6269
RightShoulder  -0.785161 -5.80303 27.527
RightArm  -13.8821 -17.6976 32.2282
RightForeArm  113.199 69.6792 146.398
RightHand  -0.0288412 -2.80761 -0.66707
LeftUpLeg  21.0043 5.14021 1.70732
LeftLeg  19.3239 -8.30353 -2.84851
LeftFoot  -21.5812 0.352902 2.48632
LeftToes  -4.9204e-010 1.02043e-011 -1.81609e-011
230
root  -20.691 38.2282 2.35234 -110.325 86.6561 -102.55
RightUpLeg  -15.2139 -4.83333 5.67398
RightLeg  18.8725 1.09522 0.218415
RightFoot  2.91829 0.382449 -2.89103
RightToes  5.23868e-010 0 -3.6325e-017
Spine  5.89798 -2.01201 8.90975
Spine1  12.55 -1.74349 0.213887
HEad  -9.04435 2.93517 -3.34425
LeftShoulder1  -0.422015 4.66166 -30.3079
LeftArm  -11.3647 12.0244 -36.4286
LeftForeArm  84.8254 -78.5241 -106.091
LeftHand  0.0272705 4.12935 -4.15195
RightShoulder  -0.763122 -5.71837 27.8232
RightArm  -12.9636 -16.9278 31.5421
RightForeArm  111.041 70.5452 144.534
RightHand  -0.0221543 -1.68889 -0.38548
LeftUpLeg  19.9862 4.1368 3.35839
LeftLeg  25.5018 -8.45457 -4.10821
LeftFoot  -19.0056 0.0299928 -1.4241
LeftToes  -4.9204e-010 1.02043e-011 -1.81609e-011
231
root  -19.5087 38.1995 2.56374 -108.085 86.3193 -101.412
RightUpLeg  -15.8869 -4.20342 6.40009
RightLeg  21.7413 0.468898 -0.0195186
RightFoot  0.148488 0.328187 -3.24872
RightToes  5.23868e-010 0 -3.6325e-017
Spine  5.46515 -1.93528 8.59384
Spine1  12.2049 -1.89361 2.21117
HEad  -9.18476 3.65744 -3.17664
LeftShoulder1  -0.422399 4.63901 -31.0687
LeftArm  -11.4118 13.198 -35.8324
LeftForeArm  85.5858 -78.4818 -106.837
LeftHand  0.0268384 4.34799 -4.37817
RightShoulder  -0.771614 -5.74458 27.8042
RightArm  -12.6716 -16.6064 31.521
RightForeArm  111.108 70.9695 143.693
RightHand  -0.0118892 -2.51541 0.0680045
LeftUpLeg  15.0277 4.49873 5.063
LeftLeg  35.2387 -9.90341 -7.08375
LeftFoot  -12.9487 0.000285044 -6.31797
LeftToes  -4.9204e-010 1.02043e-011 -1.81609e-011
232
root  -18.3293 38.2392 2.67629 -119.392 85.2472 -113.436
RightUpLeg  -15.3562 -5.07746 7.20079
RightLeg  23.2528 0.12218 -0.147667
RightFoot  -2.4105 0.253481 -3.44321
RightToes  5.23868e-010 0 -3.6325e-017
Spine  4.63982 -2.32683 9.72141
Spine1  12.5106 -2.2122 2.89167
HEad  -9.4137 3.35646 -2.99586
LeftShoulder1  -0.41466 4.61723 -31.1025
LeftArm  -11.1276 13.3699 -35.8168
LeftForeArm  84.5644 -78.5454 -105.762
LeftHand  0.0237679 4.39358 -4.22321
RightShoulder  -0.766795 -5.74049 27.6508
RightArm  -12.9112 -17.0557 31.46
RightForeArm  112.018 70.7217 144.303
RightHand  -0.0128308 -2.59519 0.0356654
LeftUpLeg  8.80116 2.9028 6.22711
LeftLeg  45.7016 -8.80006 -9.1114
LeftFoot  -2.34504 0.706949 -8.97049
LeftToes  -4.9204e-010 1.02043e-011 -1.81609e-011
233
root  -17.1993 38.2808 2.68854 -121.794 84.0267 -115.997
RightUpLeg  -13.8897 -6.57683 8.00309
RightLeg  23.9363 0.634229 0.198313
RightFoot  -4.68999 0.165306 -3.39299
RightToes  5.23868e-010 0 -3.6325e-017
Spine  4.26677 -2.59988 12.4263
Spine1  12.8418 -1.9052 1.87449
HEad  -9.78789 2.26505 -2.65127
LeftShoulder1  -0.403094 4.58603 -31.105
LeftArm  -10.642 12.7711 -35.9533
LeftForeArm  83.9263 -78.6228 -104.668
LeftHand  0.0284385 4.22897 -4.63014
RightShoulder  -0.779937 -5.78342 27.587
RightArm  -13.3969 -17.7264 31.201
RightForeArm  112.415 70.2552 145.259
RightHand  -0.0127633 -2.48571 -0.0629247
LeftUpLeg  2.90312 1.55012 7.21318
LeftLeg  54.5503 -6.42273 -9.10104
LeftFoot  7.6056 1.51062 -9.36364
LeftToes  -4.9204e-010 1.02043e-011 -1.81609e-011
